<?xml version="1.0" standalone="no"?>
<!DOCTYPE svg PUBLIC "-//W3C//DTD SVG 20010904//EN"
 "http://www.w3.org/TR/2001/REC-SVG-20010904/DTD/svg10.dtd">
<svg version="1.0" xmlns="http://www.w3.org/2000/svg"
 width="128.000000pt" height="128.000000pt" viewBox="0 0 128.000000 128.000000"
 preserveAspectRatio="xMidYMid meet">

<g transform="translate(0.000000,128.000000) scale(0.100000,-0.100000)"
fill="#000000" stroke="none">
<path d="M3 1244 c-10 -28 25 -44 94 -44 48 0 67 -4 82 -19 10 -10 62 -148
115 -309 79 -235 95 -295 87 -311 -19 -35 -13 -115 10 -145 43 -55 52 -56 387
-56 253 0 312 3 321 14 9 11 8 18 -4 30 -14 14 -55 16 -321 16 -291 0 -305 1
-324 20 -21 21 -28 94 -10 105 5 3 153 21 329 40 337 35 359 40 405 95 27 33
28 35 77 239 30 129 31 135 13 148 -14 10 -76 13 -274 13 -383 0 -710 11 -710
24 0 32 -52 118 -82 136 -44 27 -185 29 -195 4z m1206 -230 c7 -6 -61 -268
-75 -291 -8 -12 -24 -28 -36 -34 -20 -11 -648 -82 -656 -75 -1 2 -34 96 -72
210 l-69 206 452 -6 c249 -4 454 -8 456 -10z"/>
<path d="M339 263 c-39 -24 -59 -65 -59 -119 0 -42 4 -51 40 -86 34 -31 48
-38 81 -38 136 0 190 161 80 239 -36 26 -105 28 -142 4z m121 -63 c43 -43 11
-120 -49 -120 -63 0 -98 74 -56 120 24 26 79 26 105 0z"/>
<path d="M897 259 c-58 -44 -73 -116 -36 -176 43 -70 133 -85 193 -32 96 84
42 230 -84 229 -30 -1 -54 -8 -73 -21z m128 -59 c42 -46 10 -120 -51 -120 -64
0 -98 76 -54 120 26 26 81 26 105 0z"/>
</g>
</svg>
